<svg data-v-423bf9ae="" xmlns="http://www.w3.org/2000/svg" viewBox="0 0 281.448985621315 60" class="font"><!----><!----><defs data-v-423bf9ae=""><linearGradient data-v-423bf9ae="" gradientTransform="rotate(25)" id="fce09810-8a9b-4dba-9e51-6932932d657d" x1="0%" y1="0%" x2="100%" y2="0%"><stop data-v-423bf9ae="" offset="0%" style="stop-color: rgb(81, 6, 255); stop-opacity: 1;"></stop><stop data-v-423bf9ae="" offset="100%" style="stop-color: rgb(97, 203, 242); stop-opacity: 1;"></stop></linearGradient></defs><g data-v-423bf9ae="" id="a70133f0-52f6-4ddf-a0e9-b571d5aa77a4" fill="url(#fce09810-8a9b-4dba-9e51-6932932d657d)" transform="matrix(6.122449456230433,0,0,6.122449456230433,3.244897060620474,-11.816328097660907)"><path d="M3.31 1.96L3.31 1.96L3.31 1.96Q4.94 1.96 5.49 3.01L5.49 3.01L5.49 3.01Q5.87 3.80 5.87 4.56L5.87 4.56L5.86 4.56L5.86 4.56Q4.74 4.66 4.33 4.66L4.33 4.66L4.33 4.66Q4.33 4.12 4.00 3.75L4.00 3.75L4.00 3.75Q3.68 3.57 3.42 3.57L3.42 3.57L3.14 3.57L3.14 3.57Q2.45 3.57 2.30 4.11L2.30 4.11L2.30 4.11Q2.26 4.27 2.26 4.35L2.26 4.35L2.26 4.50L2.26 4.50Q2.26 5.26 3.07 5.61L3.07 5.61L3.07 5.61Q3.14 5.67 4.19 6.12L4.19 6.12L4.19 6.12Q4.75 6.38 5.23 6.76L5.23 6.76L5.23 6.77L3.51 6.77L3.51 6.97L5.78 6.97L5.78 7.24L6.06 7.24L6.06 10.21L5.50 10.21L5.50 11.73L1.16 11.73L1.16 10.21L0.13 10.21L0.13 9.18L0.71 9.18L0.71 8.83L0.13 8.83L0.13 8.59L2.12 8.59L2.12 10.21L4.16 10.21L4.16 7.77L2.63 7.77L2.63 6.97L0.74 6.97L0.74 6.77L1.65 6.77L1.65 6.76L1.65 6.76Q0.45 5.96 0.45 4.50L0.45 4.50L0.45 4.37L0.45 4.37Q0.45 3.14 1.20 2.51L1.20 2.51L1.20 2.51Q1.89 1.96 3.31 1.96ZM5.78 6.97L5.78 6.77L6.47 6.77L6.47 6.97L5.78 6.97ZM-0.53 9.18L-0.53 8.83L0.13 8.83L0.13 9.18L-0.53 9.18ZM3.86 8.83L3.86 8.83L4.06 8.83L4.06 8.83Q4.09 8.83 4.09 8.86L4.09 8.86L4.09 8.91L3.92 8.91L3.92 8.97L4.07 8.97L4.07 9.02L4.07 9.02Q4.07 9.05 4.05 9.05L4.05 9.05L3.92 9.05L3.92 9.12L4.09 9.12L4.09 9.17L4.09 9.17Q4.09 9.19 4.06 9.19L4.06 9.19L3.86 9.19L3.86 9.19Q3.82 9.19 3.82 9.17L3.82 9.17L3.82 8.86L3.82 8.86Q3.83 8.83 3.86 8.83ZM3.77 9.31L3.77 9.31L3.83 9.31L3.83 9.31Q3.85 9.31 3.95 9.43L3.95 9.43L3.95 9.43Q4.00 9.31 4.03 9.31L4.03 9.31L4.07 9.31L4.07 9.31Q4.11 9.31 4.11 9.34L4.11 9.34L4.11 9.34Q3.96 9.50 3.96 9.68L3.96 9.68L3.92 9.68L3.92 9.68Q3.88 9.68 3.87 9.49L3.87 9.49L3.87 9.49Q3.77 9.36 3.77 9.31ZM3.73 9.79L3.73 9.79L3.79 9.79L3.79 9.79Q3.83 9.79 3.87 10.00L3.87 10.00L3.90 10.00L3.90 10.00Q3.94 9.79 3.98 9.79L3.98 9.79L4.05 9.79L4.05 9.79Q4.07 9.80 4.07 9.82L4.07 9.82L4.07 10.12L4.07 10.12Q4.07 10.16 4.05 10.16L4.05 10.16L4.00 10.16L4.00 9.95L3.98 9.95L3.92 10.16L3.87 10.16L3.87 10.16Q3.83 10.16 3.79 9.95L3.79 9.95L3.77 9.95L3.77 10.16L3.73 10.16L3.73 10.16Q3.69 10.16 3.69 10.12L3.69 10.12L3.69 9.82L3.69 9.82Q3.70 9.79 3.73 9.79ZM5.60 10.62L5.60 10.29L5.76 10.29L5.76 10.29Q5.89 10.29 5.89 10.42L5.89 10.42L5.89 10.42Q5.86 10.42 5.86 10.45L5.86 10.45L5.86 10.45Q5.91 10.51 5.91 10.56L5.91 10.56L5.91 10.56Q5.87 10.66 5.73 10.66L5.73 10.66L5.63 10.66L5.63 10.66Q5.60 10.66 5.60 10.62L5.60 10.62ZM5.79 10.37L5.69 10.37L5.69 10.43L5.76 10.43L5.76 10.43Q5.79 10.43 5.79 10.40L5.79 10.40L5.79 10.37ZM5.78 10.49L5.69 10.49L5.69 10.58L5.78 10.58L5.78 10.58Q5.81 10.58 5.81 10.54L5.81 10.54L5.81 10.53L5.81 10.53Q5.81 10.49 5.78 10.49L5.78 10.49ZM5.60 11.10L5.60 10.77L5.67 10.77L5.67 10.77Q5.70 10.77 5.81 10.99L5.81 10.99L5.82 10.99L5.82 10.77L5.91 10.77L5.91 11.10L5.91 11.10Q5.91 11.14 5.87 11.14L5.87 11.14L5.84 11.14L5.84 11.14Q5.82 11.14 5.68 10.93L5.68 10.93L5.68 11.10L5.68 11.10Q5.68 11.14 5.65 11.14L5.65 11.14L5.63 11.14L5.63 11.14Q5.60 11.14 5.60 11.10L5.60 11.10ZM6.72 6.32L6.72 1.93L8.61 1.93L8.61 7.11L7.72 7.11L7.72 7.39L8.61 7.39L8.61 8.35L8.61 8.35Q8.61 9.68 9.08 9.91L9.08 9.91L9.08 9.91Q9.32 10.05 9.67 10.05L9.67 10.05L10.25 10.05L10.25 8.34L10.77 8.34L10.77 1.93L12.65 1.93L12.65 7.95L11.97 7.95L11.97 8.39L12.65 8.39L12.65 8.39Q12.63 8.61 12.63 8.71L12.63 8.71L12.63 10.63L11.65 10.63L11.65 11.73L7.27 11.73L7.27 10.38L6.86 10.38L6.86 6.32L6.72 6.32ZM8.61 7.39L8.61 7.11L9.67 7.11L9.67 7.39L8.61 7.39ZM11.74 10.71L11.74 10.71L11.81 10.71L11.81 10.71Q11.85 10.71 11.89 10.94L11.89 10.94L11.90 10.94L11.90 10.94Q11.97 10.74 11.97 10.71L11.97 10.71L12.07 10.71L12.07 10.71Q11.96 11.09 11.92 11.09L11.92 11.09L11.87 11.09L11.87 11.09Q11.84 11.09 11.74 10.71ZM13.13 7.27L13.13 1.95L15.65 1.95L15.65 1.95Q17.87 1.95 18.48 3.09L18.48 3.09L18.48 3.09Q18.85 3.81 18.85 4.93L18.85 4.93L18.85 4.93Q18.83 5.13 18.83 5.33L18.83 5.33L20.23 5.33L20.23 5.80L18.78 5.80L18.78 5.79L18.78 5.79Q18.81 5.37 18.81 5.33L18.81 5.33L18.00 5.33L18.00 5.80L18.78 5.80L18.78 7.46L17.17 7.46L17.17 8.04L17.15 8.04L17.15 8.04Q15.29 8.05 15.04 8.05L15.04 8.05L15.04 8.91L14.70 8.91L14.70 10.45L14.89 10.45L14.89 11.73L13.36 11.73L13.36 11.13L13.15 11.13L13.15 10.62L13.15 10.62Q13.15 9.75 13.13 7.77L13.13 7.77L14.06 7.77L14.06 7.27L13.13 7.27ZM15.87 3.61L15.04 3.61L15.04 6.39L15.62 6.39L15.62 5.99L16.78 5.99L16.78 5.99Q17.01 5.78 17.01 4.80L17.01 4.80L17.01 4.80Q17.01 3.86 16.58 3.73L16.58 3.73L16.58 3.73Q16.43 3.61 15.87 3.61L15.87 3.61ZM18.86 5.92L18.89 5.91L18.94 5.91L18.94 5.91Q19.02 5.97 19.02 6.04L19.02 6.04L19.13 5.91L19.20 5.91L19.20 5.93L19.20 5.93Q19.07 6.11 19.07 6.28L19.07 6.28L19.02 6.28L19.02 6.28Q18.99 6.28 18.98 6.08L18.98 6.08L18.98 6.08Q18.95 6.08 18.86 5.92L18.86 5.92ZM18.87 6.47L18.87 6.39L19.17 6.39L19.17 6.47L19.07 6.47L19.07 6.73L19.07 6.73Q19.07 6.77 19.04 6.77L19.04 6.77L19.00 6.77L19.00 6.77Q18.98 6.77 18.98 6.73L18.98 6.73L18.98 6.47L18.87 6.47ZM20.92 6.77L20.92 1.94L25.74 1.94L25.74 3.54L25.74 3.54Q25.74 3.58 25.71 3.58L25.71 3.58L22.85 3.58L22.85 5.70L25.42 5.70L25.42 5.71L25.42 5.71Q25.42 5.81 25.38 6.75L25.38 6.75L25.38 6.75Q25.37 6.75 25.37 6.77L25.37 6.77L25.48 6.77L25.48 7.27L23.26 7.27L23.26 9.28L22.66 9.28L22.66 9.47L23.26 9.47L23.26 10.08L25.78 10.08L25.78 10.32L25.58 10.32L25.58 11.52L22.57 11.52L22.57 11.73L21.13 11.73L21.13 8.22L20.92 8.22L20.92 6.99L19.35 6.99L19.35 6.77L20.92 6.77ZM21.74 6.77L20.93 6.77L20.93 6.99L21.74 6.99L21.74 6.77ZM23.41 10.04L23.41 9.59L23.52 9.59L23.52 9.75L23.54 9.75L23.54 9.75Q23.54 9.71 23.69 9.59L23.69 9.59L23.80 9.59L23.64 9.77L23.82 10.04L23.70 10.04L23.70 10.04Q23.57 9.85 23.56 9.85L23.56 9.85L23.56 9.85Q23.52 9.86 23.52 9.88L23.52 9.88L23.52 10.04L23.41 10.04ZM23.98 10.04L23.98 9.59L24.21 9.59L24.21 9.59Q24.32 9.59 24.36 9.72L24.36 9.72L24.36 9.72Q24.36 9.74 24.29 9.84L24.29 9.84L24.29 9.84Q24.34 9.84 24.36 10.04L24.36 10.04L24.28 10.04L24.28 10.04Q24.25 10.04 24.23 9.87L24.23 9.87L24.10 9.87L24.10 10.04L23.98 10.04ZM24.73 9.59L24.73 9.59L24.79 9.59L24.79 9.59Q24.94 9.59 24.97 9.79L24.97 9.79L24.97 9.85L24.97 9.85Q24.97 9.91 24.92 9.97L24.92 9.97L24.92 9.99L24.92 9.99Q24.97 9.99 24.97 10.01L24.97 10.01L24.97 10.01Q24.97 10.04 24.92 10.07L24.92 10.07L24.92 10.07Q24.90 10.07 24.87 10.01L24.87 10.01L24.79 10.04L24.73 10.04L24.73 10.04Q24.56 10.04 24.54 9.79L24.54 9.79L24.54 9.79Q24.59 9.59 24.73 9.59ZM24.66 9.79L24.66 9.79L24.66 9.84L24.66 9.84Q24.66 9.95 24.77 9.95L24.77 9.95L24.79 9.95L24.79 9.93L24.76 9.93L24.76 9.92L24.76 9.92Q24.76 9.89 24.81 9.87L24.81 9.87L24.86 9.90L24.86 9.90Q24.86 9.89 24.87 9.80L24.87 9.80L24.87 9.80Q24.86 9.67 24.74 9.67L24.74 9.67L24.74 9.67Q24.66 9.69 24.66 9.79ZM24.21 9.69L24.10 9.69L24.10 9.79L24.21 9.79L24.21 9.79Q24.25 9.79 24.25 9.75L24.25 9.75L24.25 9.72L24.25 9.72Q24.25 9.69 24.21 9.69L24.21 9.69ZM25.68 10.51L25.68 10.41L25.78 10.41L25.78 10.43L25.78 10.43Q25.78 10.73 25.73 10.73L25.73 10.73L25.73 10.73Q25.68 10.73 25.68 10.51L25.68 10.51ZM25.68 10.84L25.68 10.74L25.78 10.74L25.78 10.84L25.68 10.84ZM26.37 7.49L26.37 1.96L29.72 1.96L29.72 1.96Q31.40 1.96 31.90 3.14L31.90 3.14L31.90 3.14Q32.11 3.75 32.11 4.53L32.11 4.53L32.11 4.94L32.11 4.94Q32.11 6.36 31.49 7.11L31.49 7.11L30.78 7.11L30.78 7.47L31.86 7.47L31.86 9.81L31.22 9.81L31.22 10.17L32.19 10.17L32.19 11.55L30.15 11.55L30.15 9.34L29.37 9.34L29.37 7.92L28 7.92L28 10.34L28.29 10.34L28.29 11.73L26.41 11.73L26.41 11.73Q26.37 11.73 26.37 11.70L26.37 11.70L26.37 7.77L27.21 7.77L27.21 7.49L26.37 7.49ZM29.10 3.55L28.29 3.55L28.29 6.31L28.76 6.31L28.76 6.31Q29.80 6.31 29.97 6.11L29.97 6.11L29.97 6.11Q30.14 6.00 30.24 5.67L30.24 5.67L30.96 5.67L30.96 5.32L30.30 5.32L30.30 5.35L30.30 5.35Q30.25 5.67 30.22 5.67L30.22 5.67L29.29 5.67L29.29 5.32L30.27 5.32L30.27 5.32Q30.30 5.32 30.30 5.29L30.30 5.29L30.30 5.29Q30.32 4.87 30.32 4.81L30.32 4.81L30.32 4.81Q30.32 3.90 30.00 3.69L30.00 3.69L30.00 3.69Q29.76 3.55 29.10 3.55L29.10 3.55ZM28.18 8.16L28.08 8.00L28.16 8.00L28.16 8.00Q28.23 8.03 28.23 8.10L28.23 8.10L28.23 8.10Q28.26 8.10 28.29 8.00L28.29 8.00L28.40 8.00L28.40 8.02L28.29 8.16L28.29 8.16Q28.29 8.18 28.41 8.35L28.41 8.35L28.41 8.36L28.33 8.36L28.33 8.36Q28.31 8.36 28.23 8.24L28.23 8.24L28.23 8.24Q28.18 8.35 28.15 8.36L28.15 8.36L28.07 8.36L28.07 8.36Q28.18 8.19 28.18 8.16L28.18 8.16ZM28.10 8.56L28.10 8.49L28.40 8.49L28.40 8.54L28.21 8.77L28.40 8.77L28.40 8.85L28.08 8.85L28.08 8.79L28.26 8.56L28.10 8.56ZM32.64 7.49L32.64 1.96L35.99 1.96L35.99 1.96Q37.67 1.96 38.17 3.14L38.17 3.14L38.17 3.14Q38.38 3.75 38.38 4.53L38.38 4.53L38.38 4.94L38.38 4.94Q38.38 6.36 37.75 7.11L37.75 7.11L37.04 7.11L37.04 7.47L38.13 7.47L38.13 9.81L37.49 9.81L37.49 10.17L38.46 10.17L38.46 11.55L36.42 11.55L36.42 9.34L35.64 9.34L35.64 7.92L34.27 7.92L34.27 10.34L34.56 10.34L34.56 11.73L32.68 11.73L32.68 11.73Q32.64 11.73 32.64 11.70L32.64 11.70L32.64 7.77L33.48 7.77L33.48 7.49L32.64 7.49ZM35.37 3.55L34.56 3.55L34.56 6.31L35.03 6.31L35.03 6.31Q36.07 6.31 36.24 6.11L36.24 6.11L36.24 6.11Q36.41 6.00 36.50 5.67L36.50 5.67L37.23 5.67L37.23 5.32L36.57 5.32L36.57 5.35L36.57 5.35Q36.52 5.67 36.49 5.67L36.49 5.67L35.55 5.67L35.55 5.32L36.54 5.32L36.54 5.32Q36.57 5.32 36.57 5.29L36.57 5.29L36.57 5.29Q36.59 4.87 36.59 4.81L36.59 4.81L36.59 4.81Q36.59 3.90 36.27 3.69L36.27 3.69L36.27 3.69Q36.03 3.55 35.37 3.55L35.37 3.55ZM34.45 8.16L34.35 8.00L34.43 8.00L34.43 8.00Q34.50 8.03 34.50 8.10L34.50 8.10L34.50 8.10Q34.53 8.10 34.56 8.00L34.56 8.00L34.67 8.00L34.67 8.02L34.56 8.16L34.56 8.16Q34.56 8.18 34.68 8.35L34.68 8.35L34.68 8.36L34.60 8.36L34.60 8.36Q34.58 8.36 34.50 8.24L34.50 8.24L34.50 8.24Q34.45 8.35 34.42 8.36L34.42 8.36L34.34 8.36L34.34 8.36Q34.45 8.19 34.45 8.16L34.45 8.16ZM34.36 8.56L34.36 8.49L34.67 8.49L34.67 8.54L34.48 8.77L34.67 8.77L34.67 8.85L34.35 8.85L34.35 8.79L34.53 8.56L34.36 8.56ZM39.25 1.93L39.25 1.93L41.17 1.93L41.17 1.93Q41.17 3.34 41.67 4.33L41.67 4.33L41.67 4.33Q42.20 5.62 42.39 6.38L42.39 6.38L42.39 6.39L42.41 6.39L42.41 6.39Q42.66 5.49 43.43 3.60L43.43 3.60L43.43 3.60Q43.63 2.69 43.63 1.93L43.63 1.93L45.44 1.93L45.44 1.93Q45.27 3.40 45.03 4.10L45.03 4.10L43.94 6.58L43.28 6.58L43.28 8.27L42.27 8.27L42.27 8.60L43.28 8.60L43.28 11.73L41.41 11.73L41.41 11.73Q41.37 11.73 41.37 11.70L41.37 11.70L41.37 10.17L41.08 10.17L41.08 7.45L41.63 7.45L41.63 7.20L41.02 7.20L41.02 7.20Q40.95 7.11 39.89 4.65L39.89 4.65L39.89 4.65Q39.44 3.66 39.44 3.46L39.44 3.46L40.25 3.46L40.25 3.12L39.38 3.12L39.38 3.12Q39.25 2.03 39.25 1.93ZM38.08 3.46L38.08 3.12L39.38 3.12L39.43 3.46L38.08 3.46ZM43.36 6.73L43.36 6.64L43.66 6.64L43.66 6.71L43.48 6.94L43.66 6.94L43.66 6.99L43.66 6.99Q43.66 7.02 43.63 7.02L43.63 7.02L43.38 7.02L43.38 7.02Q43.35 7.02 43.35 6.99L43.35 6.99L43.35 6.95L43.53 6.73L43.36 6.73ZM43.28 8.60L43.28 8.27L44.08 8.27L44.08 8.60L43.28 8.60Z"></path></g><!----><!----></svg>